<svg width="1440" height="734" fill="none" xmlns="http://www.w3.org/2000/svg"><mask id="a" style="mask-type:alpha" maskUnits="userSpaceOnUse" x="0" y="0" width="1440" height="734"><path fill="#fff" d="M0 0h1440v734H0z"/></mask><g mask="url(#a)"><path fill-rule="evenodd" clip-rule="evenodd" d="M1797.36-1108.13c-12.97-27.22-39.43-52.21-70-62.69-30.22-10.65-63.46-7.31-92.93 6.74L642.056-691.271c-29.473 14.042-52.652 37.584-63.774 67.928-11.121 30.344-8.379 66.637 4.588 93.853l474.9 996.754c12.97 27.216 39.41 52.177 69.98 62.656 30.57 10.479 63.47 7.342 92.95-6.7l992.37-472.813c29.47-14.042 52.99-37.788 63.76-67.96 11.12-30.345 8.4-66.609-4.57-93.824-110.21-231.33-364.68-765.425-474.9-996.753z" fill="url(#paint0_linear)"/><path d="M262 1074c276.695 0 501-224.305 501-501 0-276.694-224.305-501-501-501s-501 224.306-501 501c0 276.695 224.305 501 501 501z" fill="url(#paint1_linear)"/></g><defs><linearGradient id="paint0_linear" x1="1181" y1="543" x2="1012" y2="99" gradientUnits="userSpaceOnUse"><stop offset=".595" stop-color="#F0F1FD"/><stop offset="1" stop-color="#F0F1FD" stop-opacity="0"/></linearGradient><linearGradient id="paint1_linear" x1="624" y1="966.5" x2="489.5" y2="72" gradientUnits="userSpaceOnUse"><stop stop-color="#F0F1FD"/><stop offset=".622" stop-color="#F0F1FD" stop-opacity=".467"/><stop offset="1" stop-color="#F0F1FD" stop-opacity="0"/></linearGradient></defs></svg>